{"title":"Outcast S01E06 1080p WEB-DL 2CH HEVC x265-GIRAYS 400MB","uid":15332269,"size":420128654,"categoryP":"video","categoryS":"hd___tv_shows","magnet":"?xt=urn:btih:ed36e5073b7f0e79f71183fc1445d5ea288d75cc&amp;dn=Outcast+S01E06+1080p+WEB-DL+2CH+HEVC+x265-GIRAYS+400MB&amp;tr=udp%3A%2F%2Ftracker.leechers-paradise.org%3A6969&amp;tr=udp%3A%2F%2Fzer0day.ch%3A1337&amp;tr=udp%3A%2F%2Fopen.demonii.com%3A1337&amp;tr=udp%3A%2F%2Ftracker.coppersurfer.tk%3A6969&amp;tr=udp%3A%2F%2Fexodus.desync.com%3A6969","seeders":5,"leechers":4,"uploader":"insane86","files":1,"time":1468749291,"description":"Source: Outcast.S01E06.From.the.Shadows.It.Watches.1080p.WEB-DL.DD5.1.H.264-R2D2\r\n \nhttps://s32.postimg.org/eo471dmb9/Outcast_S01_E06_From_the_Shadows_It_Watches_1080p.png \nhttps://s32.postimg.org/ty428khth/Outcast_S01_E06_From_the_Shadows_It_Watches_1080p.png\r\n\r\nGeneral\r\nFormat                      : Matroska\r\nFormat version              : Version 4 / Version 2\r\nFile size                   : 401 MiB\r\nDuration                    : 50mn 9s\r\nOverall bit rate            : 1 117 Kbps\r\nEncoded date                : UTC 2016-07-17 07:38:16\r\nWriting application         : mkvmerge v9.2.0 ('Photograph') 64bit\r\nWriting library             : libebml v1.3.3 + libmatroska v1.4.4\r\nCover                       : Yes\r\nAttachments                 : cover.jpg / cover_land.jpg / small_cover.jpg / small_cover_land.jpg\r\n\r\nVideo\r\nID                          : 1\r\nFormat                      : HEVC\r\nFormat/Info                 : High Efficiency Video Coding\r\nFormat profile              :   @Main\r\nCodec ID                    : V_MPEGH/ISO/HEVC\r\nDuration                    : 50mn 9s\r\nBit rate                    : 1 066 Kbps\r\nWidth                       : 1 920 pixels\r\nHeight                      : 1 080 pixels\r\nDisplay aspect ratio        : 16:9\r\nFrame rate mode             : Constant\r\nFrame rate                  : 23.976 (24000/1001) fps\r\nColor space                 : YUV\r\nChroma subsampling          : 4:2:0\r\nBit depth                   : 8 bits\r\nBits/(Pixel*Frame)          : 0.021\r\nStream size                 : 382 MiB (95%)\r\nWriting library             : x265 1.9+200-6098ba3e0cf16b11:[Windows][GCC 5.3.0][64 bit] 8bit+10bit+12bit\r\nEncoding settings           : wpp / ctu=64 / min-cu-size=8 / max-tu-size=32 / tu-intra-depth=1 / tu-inter-depth=1 / me=1 / subme=1 / merange=57 / no-rect / no-amp / max-merge=2 / temporal-mvp / early-skip / recursion-skip / rdpenalty=0 / no-tskip / no-tskip-fast / strong-intra-smoothing / no-lossless / no-cu-lossless / no-constrained-intra / fast-intra / open-gop / no-temporal-layers / interlace=0 / keyint=250 / min-keyint=23 / scenecut=40 / rc-lookahead=15 / lookahead-slices=6 / bframes=4 / bframe-bias=0 / b-adapt=0 / ref=2 / limit-refs=3 / no-limit-modes / weightp / no-weightb / aq-mode=1 / qg-size=32 / aq-strength=1.00 / cbqpoffs=0 / crqpoffs=0 / rd=2 / psy-rd=2.00 / rdoq-level=0 / psy-rdoq=0.00 / no-rd-refine / signhide / deblock=0:0 / sao / no-sao-non-deblock / b-pyramid / cutree / no-intra-refresh / rc=2 / pass / bitrate=1065 / qcomp=0.60 / qpmin=0 / qpmax=51 / qpstep=4 / cplxblur=20.0 / qblur=0.5 / ipratio=1.40 / pbratio=1.30\r\nDefault                     : Yes\r\nForced                      : No\r\n\r\nAudio\r\nID                          : 2\r\nFormat                      : AAC\r\nFormat/Info                 : Advanced Audio Codec\r\nFormat profile              : HE-AAC / LC\r\nCodec ID                    : A_AAC\r\nDuration                    : 50mn 9s\r\nBit rate                    : 48.0 Kbps\r\nChannel(s)                  : 2 channels\r\nChannel positions           : Front: L R\r\nSampling rate               : 48.0 KHz / 24.0 KHz\r\nFrame rate                  : 23.438 fps (1024 spf)\r\nCompression mode            : Lossy\r\nDelay relative to video     : 40ms\r\nStream size                 : 17.7 MiB (4%)\r\nLanguage                    : English\r\nDefault                     : No\r\nForced                      : No\r\n\r\nText\r\nID                          : 3\r\nFormat                      : UTF-8\r\nCodec ID                    : S_TEXT/UTF8\r\nCodec ID/Info               : UTF-8 Plain Text\r\nDuration                    : 49mn 11s\r\nBit rate                    : 65 bps\r\nCount of elements           : 674\r\nStream size                 : 23.5 KiB (0%)\r\nLanguage                    : English\r\nDefault                     : No\r\nForced                      : No","torrent":{"xt":"urn:btih:ed36e5073b7f0e79f71183fc1445d5ea288d75cc","amp;dn":"Outcast+S01E06+1080p+WEB-DL+2CH+HEVC+x265-GIRAYS+400MB","amp;tr":["udp%3A%2F%2Ftracker.leechers-paradise.org%3A6969","udp%3A%2F%2Fzer0day.ch%3A1337","udp%3A%2F%2Fopen.demonii.com%3A1337","udp%3A%2F%2Ftracker.coppersurfer.tk%3A6969","udp%3A%2F%2Fexodus.desync.com%3A6969"],"infoHash":"ed36e5073b7f0e79f71183fc1445d5ea288d75cc","infoHashBuffer":{"type":"Buffer","data":[237,54,229,7,59,127,14,121,247,17,131,252,20,69,213,234,40,141,117,204]},"announce":[],"urlList":[]}}